<?xml version="1.0" encoding="utf-8"?>
<!-- Generator: Adobe Illustrator 23.1.0, SVG Export Plug-In . SVG Version: 6.00 Build 0)  -->
<svg version="1.1" id="Layer_1" xmlns="http://www.w3.org/2000/svg" xmlns:xlink="http://www.w3.org/1999/xlink" x="0px" y="0px"
	 viewBox="0 0 97.55 96.94" style="enable-background:new 0 0 97.55 96.94;" xml:space="preserve">
<style type="text/css">
	.st0{fill:#C9C9C9;}
	.st1{fill:#FFFFFF;}
	.st2{fill:#00409E;}
</style>
<g>
	<path class="st2" d="M48.77,0C21.84,0,0,21.7,0,48.47s21.84,48.47,48.77,48.47s48.77-21.7,48.77-48.47S75.71,0,48.77,0z
		 M48.77,92.24c-24.32,0-44.04-19.59-44.04-43.77S24.45,4.7,48.77,4.7S92.81,24.3,92.81,48.47S73.1,92.24,48.77,92.24z"/>
	<path class="st2" d="M49.52,17.04c-18.37,0-33.26,12.12-33.26,27.08c0,13.58,12.28,24.82,28.28,26.78l-0.03,0.01
		c0,0,2.14,0.58,2.33,2.33c0.19,1.75-0.58,4.85-0.58,5.83s0,1.75,1.75,1.55c1.75-0.19,9.71-5.24,12.82-7.38
		c3-2.06,10.15-7.74,11.87-9.7c6.21-4.92,10.07-11.8,10.07-19.41C82.77,29.16,67.88,17.04,49.52,17.04z M37.53,52.46
		c0,0.32-0.26,0.58-0.58,0.58h-6.41h-3.05c-0.35,0-0.64-0.28-0.64-0.64V37.75c0-0.35,0.28-0.64,0.64-0.64h2.42
		c0.35,0,0.64,0.28,0.64,0.64v11.6h6.41c0.32,0,0.58,0.26,0.58,0.58V52.46z M43.16,52.42c0,0.34-0.28,0.62-0.62,0.62h-2.45
		c-0.34,0-0.62-0.28-0.62-0.62V37.74c0-0.34,0.28-0.62,0.62-0.62h2.45c0.34,0,0.62,0.28,0.62,0.62V52.42z M59.08,52.27
		c0,0.42-0.34,0.77-0.77,0.77h-2.49c-0.27,0-0.53-0.13-0.69-0.35l-6.15-8.39v8.03c0,0.39-0.32,0.71-0.71,0.71H46
		c-0.39,0-0.71-0.32-0.71-0.71v-14.5c0-0.39,0.32-0.71,0.71-0.71h2.54c0.27,0,0.53,0.13,0.69,0.35l6.15,8.39v-7.97
		c0-0.42,0.34-0.77,0.77-0.77h2.16c0.42,0,0.77,0.34,0.77,0.77V52.27z M72.09,40.15c0,0.36-0.29,0.66-0.66,0.66H65.1v2.52h6.33
		c0.36,0,0.66,0.29,0.66,0.66v2.38c0,0.36-0.29,0.66-0.66,0.66H65.1v2.33h6.33c0.36,0,0.66,0.29,0.66,0.66v2.38
		c0,0.36-0.29,0.66-0.66,0.66H65.1h-3.08c-0.34,0-0.61-0.27-0.61-0.61v-14.7c0-0.34,0.27-0.61,0.61-0.61h3.08h6.33
		c0.36,0,0.66,0.29,0.66,0.66V40.15z"/>
</g>
</svg>
