<?xml version="1.0" encoding="utf-8"?>
<!-- Generator: Adobe Illustrator 23.1.0, SVG Export Plug-In . SVG Version: 6.00 Build 0)  -->
<svg version="1.1" id="Layer_1" xmlns="http://www.w3.org/2000/svg" xmlns:xlink="http://www.w3.org/1999/xlink" x="0px" y="0px"
	 viewBox="0 0 1000 1000" style="enable-background:new 0 0 1000 1000;" xml:space="preserve">
<style type="text/css">
	.st0{fill:#00409E;}
	.st1{fill:#4F4F4F;}
	.st2{fill:none;}
</style>
<g>
	<path class="st0" d="M246.27,789.39c-39.3,0-71.16,31.86-71.16,71.16c0,39.3,31.86,71.16,71.16,71.16s71.16-31.86,71.16-71.16
		C317.42,821.25,285.57,789.39,246.27,789.39z M246.27,893.67c-18.29,0-33.13-14.83-33.13-33.13c0-18.29,14.83-33.13,33.13-33.13
		s33.13,14.83,33.13,33.13C279.39,878.84,264.56,893.67,246.27,893.67z"/>
	
		<ellipse transform="matrix(0.3827 -0.9239 0.9239 0.3827 -643.0178 758.7501)" class="st2" cx="246.27" cy="860.55" rx="35.63" ry="35.63"/>
	
		<ellipse transform="matrix(0.982 -0.1891 0.1891 0.982 -153.5291 112.0227)" class="st2" cx="510.27" cy="860.55" rx="35.63" ry="35.63"/>
	<path class="st0" d="M510.27,784c8.87,0,17.37,1.53,25.3,4.3l-15.48-81.95c-3.85-20.39-20.77-35.75-41.43-37.63l-229.51-20.8
		c-27.19-2.46-50.62,18.94-50.62,46.24v105.5c0,0.36,0.01,0.71,0.03,1.06c13.09-10.45,29.67-16.72,47.72-16.72
		c28.67,0,53.64,15.77,66.75,39.1h130.49C456.63,799.77,481.6,784,510.27,784z"/>
	<path class="st0" d="M510.3,789.39c-39.3,0-71.16,31.86-71.16,71.16c0,39.3,31.86,71.16,71.16,71.16s71.16-31.86,71.16-71.16
		C581.46,821.25,549.6,789.39,510.3,789.39z M510.3,893.67c-18.29,0-33.13-14.83-33.13-33.13c0-18.29,14.83-33.13,33.13-33.13
		c18.29,0,33.13,14.83,33.13,33.13C543.42,878.84,528.59,893.67,510.3,893.67z"/>
	<path class="st0" d="M809,41.3H695.66c-16.02,0-29,12.98-29,29v155.45H809c16.02,0,29-12.98,29-29V70.3
		C838,54.28,825.02,41.3,809,41.3z M816.47,194.85H688.82v-45.88h127.65V194.85z M816.47,124.62H688.82V78.75h127.65V124.62z"/>
	<path class="st0" d="M200.39,148.97c-21.2,0-38.39,17.19-38.39,38.39v0c0,21.2,17.19,38.39,38.39,38.39h455.97v-76.78H200.39z
		 M633.89,195.78H283.72v-16.85h350.17V195.78z"/>
	<path class="st0" d="M526.55,516.44l-296.7-353.6c-13.63-16.24-37.84-18.36-54.08-4.73l0,0c-16.24,13.63-18.36,37.84-4.73,54.08
		l296.7,353.6c13.63,16.24,37.84,18.36,54.08,4.73l0,0C538.06,556.89,540.18,532.68,526.55,516.44z M442.03,488.66l-181.1-215.83
		L273.83,262l181.1,215.83L442.03,488.66z"/>
	<path class="st0" d="M530.41,521.84L530.41,521.84c-10.6-18.36-34.08-24.65-52.44-14.05L212.34,661.16l50.11,59.72l253.91-146.6
		C534.72,563.68,541.01,540.21,530.41,521.84z M345.28,638.45l-8.15-14.75l109.99-60.8l8.15,14.75L345.28,638.45z"/>
</g>
</svg>
