<?xml version="1.0" encoding="utf-8"?>
<!-- Generator: Adobe Illustrator 23.1.0, SVG Export Plug-In . SVG Version: 6.00 Build 0)  -->
<svg version="1.1" id="Layer_1" xmlns="http://www.w3.org/2000/svg" xmlns:xlink="http://www.w3.org/1999/xlink" x="0px" y="0px"
	 viewBox="0 0 1000 1000" style="enable-background:new 0 0 1000 1000;" xml:space="preserve">
<style type="text/css">
	.st0{fill:#00409E;}
	.st1{fill:#4F4F4F;}
	.st2{fill:none;}
</style>
<g>
	<path class="st0" d="M917.44,280.71H345.26c-18.54,0-33.56,15.03-33.56,33.56v409.57c0,18.54,15.03,33.56,33.56,33.56h572.18
		c18.54,0,33.56-15.03,33.56-33.56V314.27C951,295.74,935.97,280.71,917.44,280.71z M918.14,716.44c0,9.09-7.37,16.46-16.46,16.46
		H361.01c-9.09,0-16.46-7.37-16.46-16.46V321.67c0-9.09,7.37-16.46,16.46-16.46h540.67c9.09,0,16.46,7.37,16.46,16.46V716.44z"/>
	<g>
		<path class="st0" d="M859.2,401H403.66c-11.99,0-21.72-9.72-21.72-21.72v0c0-11.99,9.72-21.72,21.72-21.72H859.2
			c11.99,0,21.72,9.72,21.72,21.72v0C880.91,391.27,871.19,401,859.2,401z"/>
	</g>
	<g>
		<path class="st0" d="M859.2,678.33H403.66c-11.99,0-21.72-9.72-21.72-21.72v0c0-11.99,9.72-21.72,21.72-21.72H859.2
			c11.99,0,21.72,9.72,21.72,21.72v0C880.91,668.6,871.19,678.33,859.2,678.33z"/>
	</g>
	<g>
		<path class="st0" d="M859.2,540.22H518.38c-11.99,0-21.72-9.72-21.72-21.72l0,0c0-11.99,9.72-21.72,21.72-21.72H859.2
			c11.99,0,21.72,9.72,21.72,21.72l0,0C880.91,530.49,871.19,540.22,859.2,540.22z"/>
	</g>
	<g>
		<path class="st0" d="M569.61,475.62h-61.26c-11.99,0-21.72-9.72-21.72-21.72v0c0-11.99,9.72-21.72,21.72-21.72h61.26
			c11.99,0,21.72,9.72,21.72,21.72v0C591.33,465.9,581.61,475.62,569.61,475.62z"/>
	</g>
	<g>
		<path class="st0" d="M855.85,475.62h-226.1c-11.99,0-21.72-9.72-21.72-21.72v0c0-11.99,9.72-21.72,21.72-21.72h226.1
			c11.99,0,21.72,9.72,21.72,21.72v0C877.57,465.9,867.85,475.62,855.85,475.62z"/>
	</g>
	<g>
		<path class="st0" d="M502.79,609.27h-99.13c-11.99,0-21.72-9.72-21.72-21.72v0c0-11.99,9.72-21.72,21.72-21.72h99.13
			c11.99,0,21.72,9.72,21.72,21.72v0C524.51,599.55,514.78,609.27,502.79,609.27z"/>
	</g>
	<g>
		<path class="st0" d="M859.2,609.27H557.36c-11.99,0-21.72-9.72-21.72-21.72v0c0-11.99,9.72-21.72,21.72-21.72H859.2
			c11.99,0,21.72,9.72,21.72,21.72v0C880.91,599.55,871.19,609.27,859.2,609.27z"/>
	</g>
	<circle class="st0" cx="161.42" cy="358.67" r="79.08"/>
	<path class="st0" d="M435.41,467.82H261.66H128.09c-43.72,0-79.16,35.44-79.16,79.16v209.31h212.73V536.88h173.75
		c19.07,0,34.53-15.46,34.53-34.53v0C469.93,483.28,454.47,467.82,435.41,467.82z"/>
</g>
</svg>
