<?xml version="1.0" encoding="utf-8"?>
<!-- Generator: Adobe Illustrator 23.1.0, SVG Export Plug-In . SVG Version: 6.00 Build 0)  -->
<svg version="1.1" id="Layer_1" xmlns="http://www.w3.org/2000/svg" xmlns:xlink="http://www.w3.org/1999/xlink" x="0px" y="0px"
	 viewBox="0 0 1000 1000" style="enable-background:new 0 0 1000 1000;" xml:space="preserve">
<style type="text/css">
	.st0{fill:#00409E;}
	.st1{fill:#4F4F4F;}
	.st2{fill:none;}
</style>
<path class="st0" d="M500,175.17c-171.48,0-310.5,139.01-310.5,310.5c0,94.41,42.14,178.97,108.63,235.92l-2.9,46.5L290.99,836
	l60.94-30.29l50.62-25.16c30.65,10.12,63.41,15.61,97.45,15.61c171.48,0,310.5-139.01,310.5-310.5S671.48,175.17,500,175.17z
	 M275.07,365.7c0-16.08,13.03-29.11,29.11-29.11h265.51c16.08,0,29.11,13.03,29.11,29.11v0c0,16.08-13.03,29.11-29.11,29.11H304.18
	C288.1,394.81,275.07,381.78,275.07,365.7L275.07,365.7z M275.07,446.44c0-14.39,11.66-26.05,26.05-26.05h207.23
	c14.39,0,26.05,11.66,26.05,26.05v6.11c0,14.39-11.66,26.05-26.05,26.05H301.12c-14.39,0-26.05-11.66-26.05-26.05V446.44z
	 M634.96,617.09c0,16.08-13.03,29.11-29.11,29.11H304.18c-16.08,0-29.11-13.03-29.11-29.11l0,0c0-16.08,13.03-29.11,29.11-29.11
	h301.67C621.93,587.99,634.96,601.02,634.96,617.09L634.96,617.09z M728.46,533.3c0,16.08-13.03,29.11-29.11,29.11H304.18
	c-16.08,0-29.11-13.03-29.11-29.11v0c0-16.08,13.03-29.11,29.11-29.11h395.18C715.43,504.19,728.46,517.22,728.46,533.3
	L728.46,533.3z M725.95,478.61H586.31c-12.1,0-21.91-9.81-21.91-21.91V442.3c0-12.1,9.81-21.91,21.91-21.91h139.65
	c12.1,0,21.91,9.81,21.91,21.91v14.39C747.87,468.79,738.06,478.61,725.95,478.61z"/>
</svg>
