<?xml version="1.0" encoding="utf-8"?>
<!-- Generator: Adobe Illustrator 23.1.0, SVG Export Plug-In . SVG Version: 6.00 Build 0)  -->
<svg version="1.1" id="Layer_1" xmlns="http://www.w3.org/2000/svg" xmlns:xlink="http://www.w3.org/1999/xlink" x="0px" y="0px"
	 viewBox="0 0 97.55 96.94" style="enable-background:new 0 0 97.55 96.94;" xml:space="preserve">
<style type="text/css">
	.st0{fill:#C9C9C9;}
	.st1{fill:#FFFFFF;}
	.st2{fill:#00409E;}
</style>
<g>
	<path class="st2" d="M48.77,0C21.84,0,0,21.7,0,48.47s21.84,48.47,48.77,48.47s48.77-21.7,48.77-48.47S75.71,0,48.77,0z
		 M48.77,92.24c-24.32,0-44.04-19.59-44.04-43.77S24.45,4.7,48.77,4.7S92.81,24.3,92.81,48.47S73.1,92.24,48.77,92.24z"/>
	<g>
		<path class="st2" d="M18.43,33.47v0.5l28.73,16.59c0.67,0.39,1.49,0.39,2.16,0l28.8-16.63v-0.46H18.43z"/>
		<path class="st2" d="M48.24,53.13l-1.69-0.97L18.43,35.92V70.1c0,1.31,1.06,2.37,2.37,2.37h54.95c1.31,0,2.37-1.06,2.37-2.37
			V35.88L49.93,52.16L48.24,53.13z"/>
	</g>
</g>
</svg>
