<?xml version="1.0" encoding="utf-8"?>
<!-- Generator: Adobe Illustrator 23.1.0, SVG Export Plug-In . SVG Version: 6.00 Build 0)  -->
<svg version="1.1" id="Layer_1" xmlns="http://www.w3.org/2000/svg" xmlns:xlink="http://www.w3.org/1999/xlink" x="0px" y="0px"
	 viewBox="0 0 97.55 96.94" style="enable-background:new 0 0 97.55 96.94;" xml:space="preserve">
<style type="text/css">
	.st0{fill:#C9C9C9;}
	.st1{fill:#FFFFFF;}
	.st2{fill:#00409E;}
</style>
<g>
	<path class="st2" d="M48.77,0C21.84,0,0,21.7,0,48.47s21.84,48.47,48.77,48.47s48.77-21.7,48.77-48.47S75.71,0,48.77,0z
		 M48.77,92.24c-24.32,0-44.04-19.59-44.04-43.77S24.45,4.7,48.77,4.7S92.81,24.3,92.81,48.47S73.1,92.24,48.77,92.24z"/>
	<path class="st2" d="M64.21,16.47H35.34c-4.18,0-7.56,3.39-7.56,7.56v48.88c0,4.18,3.39,7.56,7.56,7.56h28.87
		c4.18,0,7.56-3.39,7.56-7.56V24.03C71.77,19.86,68.39,16.47,64.21,16.47z M55.77,72.62c0,1.02-0.83,1.85-1.85,1.85h-8.31
		c-1.02,0-1.85-0.83-1.85-1.85v-0.31c0-1.02,0.83-1.85,1.85-1.85h8.31c1.02,0,1.85,0.83,1.85,1.85V72.62z"/>
</g>
</svg>
