<?xml version="1.0" encoding="utf-8"?>
<!-- Generator: Adobe Illustrator 23.1.0, SVG Export Plug-In . SVG Version: 6.00 Build 0)  -->
<svg version="1.1" id="Layer_1" xmlns="http://www.w3.org/2000/svg" xmlns:xlink="http://www.w3.org/1999/xlink" x="0px" y="0px"
	 viewBox="0 0 1000 1000" style="enable-background:new 0 0 1000 1000;" xml:space="preserve">
<style type="text/css">
	.st0{fill:#00409E;}
	.st1{fill:#4F4F4F;}
	.st2{fill:none;}
</style>
<g>
	<rect x="-124" class="st0" width="100" height="100"/>
</g>
<g>
	<rect x="-124" y="122" class="st1" width="100" height="100"/>
</g>
<g>
	<path class="st1" d="M790-400H138c-13.81,0-25-11.19-25-25v0c0-13.81,11.19-25,25-25h652c13.81,0,25,11.19,25,25v0
		C815-411.19,803.81-400,790-400z"/>
</g>
<path class="st0" d="M-947,156.17c-171.48,0-310.5,139.01-310.5,310.5c0,94.41,42.14,178.97,108.63,235.92l-2.9,46.5l-4.24,67.92
	l60.94-30.29l50.62-25.16c30.65,10.12,63.41,15.61,97.45,15.61c171.48,0,310.5-139.01,310.5-310.5S-775.52,156.17-947,156.17z
	 M-1171.93,346.7c0-16.08,13.03-29.11,29.11-29.11h265.51c16.08,0,29.11,13.03,29.11,29.11v0c0,16.08-13.03,29.11-29.11,29.11
	h-265.51C-1158.9,375.81-1171.93,362.78-1171.93,346.7L-1171.93,346.7z M-1171.93,427.44c0-14.39,11.66-26.05,26.05-26.05h207.23
	c14.39,0,26.05,11.66,26.05,26.05v6.11c0,14.39-11.66,26.05-26.05,26.05h-207.23c-14.39,0-26.05-11.66-26.05-26.05V427.44z
	 M-812.04,598.09c0,16.08-13.03,29.11-29.11,29.11h-301.67c-16.08,0-29.11-13.03-29.11-29.11l0,0c0-16.08,13.03-29.11,29.11-29.11
	h301.67C-825.07,568.99-812.04,582.02-812.04,598.09L-812.04,598.09z M-718.54,514.3c0,16.08-13.03,29.11-29.11,29.11h-395.18
	c-16.08,0-29.11-13.03-29.11-29.11v0c0-16.08,13.03-29.11,29.11-29.11h395.18C-731.57,485.19-718.54,498.22-718.54,514.3
	L-718.54,514.3z M-721.05,459.61h-139.65c-12.1,0-21.91-9.81-21.91-21.91V423.3c0-12.1,9.81-21.91,21.91-21.91h139.65
	c12.1,0,21.91,9.81,21.91,21.91v14.39C-699.13,449.79-708.94,459.61-721.05,459.61z"/>
<g>
	<path class="st0" d="M-2149.73,664.39c-39.3,0-71.16,31.86-71.16,71.16c0,39.3,31.86,71.16,71.16,71.16
		c39.3,0,71.16-31.86,71.16-71.16C-2078.58,696.25-2110.43,664.39-2149.73,664.39z M-2149.73,768.67
		c-18.29,0-33.13-14.83-33.13-33.13c0-18.29,14.83-33.13,33.13-33.13c18.29,0,33.13,14.83,33.13,33.13
		C-2116.61,753.84-2131.44,768.67-2149.73,768.67z"/>
	
		<ellipse transform="matrix(0.3827 -0.9239 0.9239 0.3827 -2006.6238 -1532.03)" class="st2" cx="-2149.73" cy="735.55" rx="35.63" ry="35.63"/>
	
		<ellipse transform="matrix(0.982 -0.1891 0.1891 0.982 -173.1232 -343.335)" class="st2" cx="-1885.73" cy="735.55" rx="35.63" ry="35.63"/>
	<path class="st0" d="M-1885.73,659c8.87,0,17.37,1.53,25.3,4.3l-15.48-81.95c-3.85-20.39-20.77-35.75-41.43-37.63l-229.51-20.8
		c-27.19-2.46-50.62,18.94-50.62,46.24v105.5c0,0.36,0.01,0.71,0.03,1.06c13.09-10.45,29.67-16.72,47.72-16.72
		c28.67,0,53.64,15.77,66.75,39.1h130.49C-1939.37,674.77-1914.4,659-1885.73,659z"/>
	<path class="st0" d="M-1885.7,664.39c-39.3,0-71.16,31.86-71.16,71.16c0,39.3,31.86,71.16,71.16,71.16s71.16-31.86,71.16-71.16
		C-1814.54,696.25-1846.4,664.39-1885.7,664.39z M-1885.7,768.67c-18.29,0-33.13-14.83-33.13-33.13c0-18.29,14.83-33.13,33.13-33.13
		s33.13,14.83,33.13,33.13C-1852.58,753.84-1867.41,768.67-1885.7,768.67z"/>
	<path class="st0" d="M-1587-83.7h-113.34c-16.02,0-29,12.98-29,29v155.45H-1587c16.02,0,29-12.98,29-29V-54.7
		C-1558-70.72-1570.98-83.7-1587-83.7z M-1579.53,69.85h-127.65V23.97h127.65V69.85z M-1579.53-0.38h-127.65v-45.88h127.65V-0.38z"
		/>
	<path class="st0" d="M-2195.61,23.97c-21.2,0-38.39,17.19-38.39,38.39v0c0,21.2,17.19,38.39,38.39,38.39h455.97V23.97H-2195.61z
		 M-1762.11,70.78h-350.17V53.93h350.17V70.78z"/>
	<path class="st0" d="M-1869.45,391.44l-296.7-353.6c-13.63-16.24-37.84-18.36-54.08-4.73v0c-16.24,13.63-18.36,37.84-4.73,54.08
		l296.7,353.6c13.63,16.24,37.84,18.36,54.08,4.73l0,0C-1857.94,431.89-1855.82,407.68-1869.45,391.44z M-1953.97,363.66
		l-181.1-215.83l12.91-10.83l181.1,215.83L-1953.97,363.66z"/>
	<path class="st0" d="M-1865.59,396.84L-1865.59,396.84c-10.6-18.36-34.08-24.65-52.44-14.05l-265.64,153.37l50.11,59.72
		l253.91-146.6C-1861.28,438.68-1854.99,415.21-1865.59,396.84z M-2050.72,513.45l-8.15-14.75l109.99-60.8l8.15,14.75
		L-2050.72,513.45z"/>
</g>
<g>
	<path class="st0" d="M246.27,2144.39c-39.3,0-71.16,31.86-71.16,71.16c0,39.3,31.86,71.16,71.16,71.16s71.16-31.86,71.16-71.16
		C317.42,2176.25,285.57,2144.39,246.27,2144.39z M246.27,2248.67c-18.29,0-33.13-14.83-33.13-33.13
		c0-18.29,14.83-33.13,33.13-33.13s33.13,14.83,33.13,33.13C279.39,2233.84,264.56,2248.67,246.27,2248.67z"/>
	
		<ellipse transform="matrix(0.3827 -0.9239 0.9239 0.3827 -1894.8746 1595.2142)" class="st2" cx="246.27" cy="2215.55" rx="35.63" ry="35.63"/>
	
		<ellipse transform="matrix(0.982 -0.1891 0.1891 0.982 -409.7701 136.4718)" class="st2" cx="510.27" cy="2215.55" rx="35.63" ry="35.63"/>
	<path class="st0" d="M510.27,2139c8.87,0,17.37,1.53,25.3,4.3l-15.48-81.95c-3.85-20.39-20.77-35.75-41.43-37.63l-229.51-20.8
		c-27.19-2.46-50.62,18.94-50.62,46.24v105.5c0,0.36,0.01,0.71,0.03,1.06c13.09-10.45,29.67-16.72,47.72-16.72
		c28.67,0,53.64,15.77,66.75,39.1h130.49C456.63,2154.77,481.6,2139,510.27,2139z"/>
	<path class="st0" d="M510.3,2144.39c-39.3,0-71.16,31.86-71.16,71.16c0,39.3,31.86,71.16,71.16,71.16s71.16-31.86,71.16-71.16
		C581.46,2176.25,549.6,2144.39,510.3,2144.39z M510.3,2248.67c-18.29,0-33.13-14.83-33.13-33.13c0-18.29,14.83-33.13,33.13-33.13
		c18.29,0,33.13,14.83,33.13,33.13C543.42,2233.84,528.59,2248.67,510.3,2248.67z"/>
	<path class="st0" d="M809,1396.3H695.66c-16.02,0-29,12.98-29,29v155.45H809c16.02,0,29-12.98,29-29V1425.3
		C838,1409.28,825.02,1396.3,809,1396.3z M816.47,1549.85H688.82v-45.88h127.65V1549.85z M816.47,1479.62H688.82v-45.88h127.65
		V1479.62z"/>
	<path class="st0" d="M200.39,1503.97c-21.2,0-38.39,17.19-38.39,38.39l0,0c0,21.2,17.19,38.39,38.39,38.39h455.97v-76.78H200.39z
		 M633.89,1550.78H283.72v-16.85h350.17V1550.78z"/>
	<path class="st0" d="M526.55,1871.44l-296.7-353.6c-13.63-16.24-37.84-18.36-54.08-4.73l0,0c-16.24,13.63-18.36,37.84-4.73,54.08
		l296.7,353.6c13.63,16.24,37.84,18.36,54.08,4.73h0C538.06,1911.89,540.18,1887.68,526.55,1871.44z M442.03,1843.66l-181.1-215.83
		l12.91-10.83l181.1,215.83L442.03,1843.66z"/>
	<path class="st0" d="M530.41,1876.84L530.41,1876.84c-10.6-18.36-34.08-24.65-52.44-14.05l-265.64,153.37l50.11,59.72l253.91-146.6
		C534.72,1918.68,541.01,1895.21,530.41,1876.84z M345.28,1993.45l-8.15-14.75l109.99-60.8l8.15,14.75L345.28,1993.45z"/>
</g>
<g>
	<g>
		<g>
			<path class="st0" d="M-2378.13,217.51l-362.88,97.23c-11.57,3.1-23.46-3.77-26.56-15.34v0c-3.1-11.57,3.77-23.46,15.34-26.56
				l362.88-97.23c11.57-3.1,23.46,3.77,26.56,15.34v0C-2359.69,202.52-2366.56,214.41-2378.13,217.51z"/>
		</g>
		<g>
			<path class="st0" d="M-2389.35,314.75l-362.88-97.23c-11.57-3.1-18.44-14.99-15.34-26.56v0c3.1-11.57,14.99-18.44,26.56-15.34
				l362.88,97.23c11.57,3.1,18.44,14.99,15.34,26.56v0C-2365.89,310.98-2377.78,317.85-2389.35,314.75z"/>
		</g>
		<g>
			<path class="st0" d="M-2389.35,412.15l-362.88-97.23c-11.57-3.1-18.44-14.99-15.34-26.56v0c3.1-11.57,14.99-18.44,26.56-15.34
				l362.88,97.23c11.57,3.1,18.44,14.99,15.34,26.56v0C-2365.89,408.38-2377.78,415.25-2389.35,412.15z"/>
		</g>
		<g>
			<path class="st0" d="M-2378.13,314.91l-362.88,97.23c-11.57,3.1-23.46-3.77-26.56-15.34v0c-3.1-11.57,3.77-23.46,15.34-26.56
				l362.88-97.23c11.57-3.1,23.46,3.77,26.56,15.34v0C-2359.69,299.92-2366.56,311.81-2378.13,314.91z"/>
		</g>
		<g>
			<path class="st0" d="M-2378.13,412.31l-362.88,97.23c-11.57,3.1-23.46-3.77-26.56-15.34v0c-3.1-11.57,3.77-23.46,15.34-26.56
				l362.88-97.23c11.57-3.1,23.46,3.77,26.56,15.34v0C-2359.69,397.32-2366.56,409.21-2378.13,412.31z"/>
		</g>
		<g>
			<path class="st0" d="M-2389.35,509.55l-362.88-97.23c-11.57-3.1-18.44-14.99-15.34-26.56v0c3.1-11.57,14.99-18.44,26.56-15.34
				l362.88,97.23c11.57,3.1,18.44,14.99,15.34,26.56v0C-2365.89,505.78-2377.78,512.65-2389.35,509.55z"/>
		</g>
		<g>
			<path class="st0" d="M-2389.35,606.95l-362.88-97.23c-11.57-3.1-18.44-14.99-15.34-26.56v0c3.1-11.57,14.99-18.44,26.56-15.34
				l362.88,97.23c11.57,3.1,18.44,14.99,15.34,26.56v0C-2365.89,603.18-2377.78,610.05-2389.35,606.95z"/>
		</g>
		<g>
			<path class="st0" d="M-2378.13,509.71l-362.88,97.23c-11.57,3.1-23.46-3.77-26.56-15.34v0c-3.1-11.57,3.77-23.46,15.34-26.56
				l362.88-97.23c11.57-3.1,23.46,3.77,26.56,15.34v0C-2359.69,494.72-2366.56,506.61-2378.13,509.71z"/>
		</g>
	</g>
	<g>
		<path class="st0" d="M-2359.28-58.07h-413.44c-22.8,0-41.28,18.48-41.28,41.28v167.74c0,3.9,3.16,7.06,7.06,7.06h481.87
			c3.9,0,7.06-3.16,7.06-7.06V-16.79C-2318-39.59-2336.48-58.07-2359.28-58.07z M-2583.19,103.99h-202.16V49.97h202.16V103.99z
			 M-2583.19,31.15h-202.16v-54.02h202.16V31.15z M-2347.47,103.99h-202.17V49.97h202.17V103.99z M-2347.47,31.15h-202.17v-54.02
			h202.17V31.15z"/>
	</g>
	<g>
		<path class="st0" d="M-2334,615.54H-2798c-8.83,0-16,7.16-16,16v123.52c0,8.83,7.16,16,16,16h20.28
			c-0.71-3.44-1.08-6.99-1.08-10.64c0-28.93,23.45-52.38,52.38-52.38c28.93,0,52.38,23.45,52.38,52.38c0,3.65-0.37,7.2-1.08,10.64
			h221.52c-0.71-3.44-1.08-6.99-1.08-10.64c0-28.93,23.45-52.38,52.38-52.38c28.93,0,52.38,23.45,52.38,52.38
			c0,3.65-0.37,7.2-1.08,10.64h17.01c8.83,0,16-7.16,16-16V631.54C-2318,622.7-2325.16,615.54-2334,615.54z"/>
	</g>
	<path class="st0" d="M-2726.42,713.76c-25.77,0-46.65,20.89-46.65,46.65s20.89,46.65,46.65,46.65c25.77,0,46.65-20.89,46.65-46.65
		S-2700.66,713.76-2726.42,713.76z M-2726.42,782.28c-12.08,0-21.87-9.79-21.87-21.87s9.79-21.87,21.87-21.87
		c12.08,0,21.87,9.79,21.87,21.87S-2714.34,782.28-2726.42,782.28z"/>
	<path class="st0" d="M-2402.3,713.76c-25.77,0-46.65,20.89-46.65,46.65s20.89,46.65,46.65,46.65c25.77,0,46.65-20.89,46.65-46.65
		S-2376.54,713.76-2402.3,713.76z M-2402.3,782.28c-12.08,0-21.87-9.79-21.87-21.87s9.79-21.87,21.87-21.87
		c12.08,0,21.87,9.79,21.87,21.87S-2390.23,782.28-2402.3,782.28z"/>
</g>
<g>
	<g>
		<g>
			<path class="st0" d="M664.87,357.51l-362.88,97.23c-11.57,3.1-23.46-3.77-26.56-15.34v0c-3.1-11.57,3.77-23.46,15.34-26.56
				l362.88-97.23c11.57-3.1,23.46,3.77,26.56,15.34v0C683.31,342.52,676.44,354.41,664.87,357.51z"/>
		</g>
		<g>
			<path class="st0" d="M653.65,454.75l-362.88-97.23c-11.57-3.1-18.44-14.99-15.34-26.56v0c3.1-11.57,14.99-18.44,26.56-15.34
				l362.88,97.23c11.57,3.1,18.44,14.99,15.34,26.56v0C677.11,450.98,665.22,457.85,653.65,454.75z"/>
		</g>
		<g>
			<path class="st0" d="M653.65,552.15l-362.88-97.23c-11.57-3.1-18.44-14.99-15.34-26.56v0c3.1-11.57,14.99-18.44,26.56-15.34
				l362.88,97.23c11.57,3.1,18.44,14.99,15.34,26.56v0C677.11,548.38,665.22,555.25,653.65,552.15z"/>
		</g>
		<g>
			<path class="st0" d="M664.87,454.91l-362.88,97.23c-11.57,3.1-23.46-3.77-26.56-15.34v0c-3.1-11.57,3.77-23.46,15.34-26.56
				l362.88-97.23c11.57-3.1,23.46,3.77,26.56,15.34v0C683.31,439.92,676.44,451.81,664.87,454.91z"/>
		</g>
		<g>
			<path class="st0" d="M664.87,552.31l-362.88,97.23c-11.57,3.1-23.46-3.77-26.56-15.34l0,0c-3.1-11.57,3.77-23.46,15.34-26.56
				l362.88-97.23c11.57-3.1,23.46,3.77,26.56,15.34l0,0C683.31,537.32,676.44,549.21,664.87,552.31z"/>
		</g>
		<g>
			<path class="st0" d="M653.65,649.55l-362.88-97.23c-11.57-3.1-18.44-14.99-15.34-26.56v0c3.1-11.57,14.99-18.44,26.56-15.34
				l362.88,97.23c11.57,3.1,18.44,14.99,15.34,26.56v0C677.11,645.78,665.22,652.65,653.65,649.55z"/>
		</g>
		<g>
			<path class="st0" d="M653.65,746.95l-362.88-97.23c-11.57-3.1-18.44-14.99-15.34-26.56v0c3.1-11.57,14.99-18.44,26.56-15.34
				l362.88,97.23c11.57,3.1,18.44,14.99,15.34,26.56v0C677.11,743.18,665.22,750.05,653.65,746.95z"/>
		</g>
		<g>
			<path class="st0" d="M664.87,649.71l-362.88,97.23c-11.57,3.1-23.46-3.77-26.56-15.34v0c-3.1-11.57,3.77-23.46,15.34-26.56
				l362.88-97.23c11.57-3.1,23.46,3.77,26.56,15.34l0,0C683.31,634.72,676.44,646.61,664.87,649.71z"/>
		</g>
	</g>
	<g>
		<path class="st0" d="M683.72,81.93H270.28c-22.8,0-41.28,18.48-41.28,41.28v167.74c0,3.9,3.16,7.06,7.06,7.06h481.87
			c3.9,0,7.06-3.16,7.06-7.06V123.21C725,100.41,706.52,81.93,683.72,81.93z M459.81,243.99H257.65v-54.02h202.17V243.99z
			 M459.81,171.15H257.65v-54.02h202.17V171.15z M695.53,243.99H493.37v-54.02h202.17V243.99z M695.53,171.15H493.37v-54.02h202.17
			V171.15z"/>
	</g>
	<g>
		<path class="st0" d="M709,755.54H245c-8.83,0-16,7.16-16,16v123.52c0,8.83,7.16,16,16,16h20.28c-0.71-3.44-1.08-6.99-1.08-10.64
			c0-28.93,23.45-52.38,52.38-52.38s52.38,23.45,52.38,52.38c0,3.65-0.37,7.2-1.08,10.64H589.4c-0.71-3.44-1.08-6.99-1.08-10.64
			c0-28.93,23.45-52.38,52.38-52.38c28.93,0,52.38,23.45,52.38,52.38c0,3.65-0.37,7.2-1.08,10.64H709c8.83,0,16-7.16,16-16V771.54
			C725,762.7,717.84,755.54,709,755.54z"/>
	</g>
	<path class="st0" d="M316.58,853.76c-25.77,0-46.65,20.89-46.65,46.65s20.89,46.65,46.65,46.65c25.77,0,46.65-20.89,46.65-46.65
		S342.34,853.76,316.58,853.76z M316.58,922.28c-12.08,0-21.87-9.79-21.87-21.87s9.79-21.87,21.87-21.87
		c12.08,0,21.87,9.79,21.87,21.87S328.66,922.28,316.58,922.28z"/>
	<path class="st0" d="M640.7,853.76c-25.77,0-46.65,20.89-46.65,46.65s20.89,46.65,46.65,46.65c25.77,0,46.65-20.89,46.65-46.65
		S666.46,853.76,640.7,853.76z M640.7,922.28c-12.08,0-21.87-9.79-21.87-21.87s9.79-21.87,21.87-21.87s21.87,9.79,21.87,21.87
		S652.77,922.28,640.7,922.28z"/>
</g>
<g>
	<path class="st0" d="M-2211.21-667.09c-27.94,0-50.6,22.65-50.6,50.6c0,27.94,22.65,50.6,50.6,50.6c27.94,0,50.59-22.65,50.59-50.6
		C-2160.62-644.43-2183.27-667.09-2211.21-667.09z M-2211.21-592.94c-13.01,0-23.55-10.54-23.55-23.55
		c0-13.01,10.54-23.55,23.55-23.55c13.01,0,23.55,10.54,23.55,23.55C-2187.66-603.48-2198.21-592.94-2211.21-592.94z"/>
	
		<ellipse transform="matrix(0.3827 -0.9239 0.9239 0.3827 -795.4562 -2423.4651)" class="st2" cx="-2211.21" cy="-616.49" rx="25.34" ry="25.34"/>
	
		<ellipse transform="matrix(0.982 -0.1891 0.1891 0.982 80.0717 -393.7838)" class="st2" cx="-2023.5" cy="-616.49" rx="25.34" ry="25.34"/>
	<path class="st0" d="M-2023.5-670.92c6.31,0,12.35,1.08,17.99,3.06l-11-58.27c-2.74-14.5-14.77-25.42-29.46-26.75l-163.19-14.79
		c-19.33-1.75-36,13.47-36,32.88v75.01c0,0.25,0.01,0.5,0.02,0.75c9.31-7.43,21.1-11.89,33.93-11.89c20.38,0,38.14,11.21,47.46,27.8
		h92.78C-2061.64-659.71-2043.89-670.92-2023.5-670.92z"/>
	<path class="st0" d="M-2023.48-667.09c-27.94,0-50.6,22.65-50.6,50.6c0,27.94,22.65,50.6,50.6,50.6c27.94,0,50.6-22.65,50.6-50.6
		C-1972.88-644.43-1995.54-667.09-2023.48-667.09z M-2023.48-592.94c-13.01,0-23.55-10.54-23.55-23.55
		c0-13.01,10.55-23.55,23.55-23.55c13.01,0,23.55,10.54,23.55,23.55C-1999.93-603.48-2010.47-592.94-2023.48-592.94z"/>
	<path class="st0" d="M-1811.1-1199h-80.59c-11.39,0-20.62,9.23-20.62,20.62v110.53h101.21c11.39,0,20.62-9.23,20.62-20.62v-89.91
		C-1790.48-1189.77-1799.71-1199-1811.1-1199z M-1805.79-1089.82h-90.76v-32.62h90.76V-1089.82z M-1805.79-1139.75h-90.76v-32.62
		h90.76V-1139.75z"/>
	<path class="st0" d="M-2243.83-1122.44c-15.07,0-27.29,12.22-27.29,27.29l0,0c0,15.07,12.22,27.29,27.29,27.29h324.21v-54.59
		H-2243.83z M-1935.6-1089.16h-248.98v-11.98h248.98V-1089.16z"/>
	<path class="st0" d="M-2011.93-861.16l-210.96-251.42c-9.69-11.55-26.91-13.05-38.45-3.36l0,0c-11.55,9.69-13.05,26.91-3.36,38.45
		l210.96,251.42c9.69,11.55,26.91,13.05,38.45,3.36h0C-2003.74-832.4-2002.24-849.61-2011.93-861.16z M-2072.02-880.91
		l-128.77-153.46l9.18-7.7l128.77,153.46L-2072.02-880.91z"/>
	<path class="st0" d="M-2009.18-857.32L-2009.18-857.32c-7.54-13.05-24.23-17.53-37.29-9.99l-188.88,109.05l35.63,42.46
		l180.54-104.23C-2006.11-827.57-2001.64-844.26-2009.18-857.32z M-2140.81-774.41l-5.8-10.49l78.21-43.23l5.8,10.49
		L-2140.81-774.41z"/>
	<g>
		<g>
			<g>
				<path class="st0" d="M-2373.61-984.83l-258.02,69.14c-8.23,2.2-16.68-2.68-18.89-10.9l0,0c-2.2-8.23,2.68-16.68,10.91-18.89
					l258.02-69.14c8.23-2.2,16.68,2.68,18.89,10.9v0C-2360.5-995.49-2365.38-987.03-2373.61-984.83z"/>
			</g>
			<g>
				<path class="st0" d="M-2381.59-915.69l-258.02-69.14c-8.23-2.2-13.11-10.66-10.91-18.89v0c2.2-8.23,10.66-13.11,18.89-10.9
					l258.02,69.14c8.23,2.2,13.11,10.66,10.91,18.89v0C-2364.91-918.37-2373.36-913.49-2381.59-915.69z"/>
			</g>
			<g>
				<path class="st0" d="M-2381.59-846.44l-258.02-69.14c-8.23-2.2-13.11-10.66-10.91-18.89v0c2.2-8.23,10.66-13.11,18.89-10.9
					l258.02,69.14c8.23,2.2,13.11,10.66,10.91,18.89v0C-2364.91-849.11-2373.36-844.23-2381.59-846.44z"/>
			</g>
			<g>
				<path class="st0" d="M-2373.61-915.57l-258.02,69.14c-8.23,2.2-16.68-2.68-18.89-10.9l0,0c-2.2-8.23,2.68-16.68,10.91-18.89
					l258.02-69.14c8.23-2.2,16.68,2.68,18.89,10.9v0C-2360.5-926.23-2365.38-917.78-2373.61-915.57z"/>
			</g>
			<g>
				<path class="st0" d="M-2373.61-846.32l-258.02,69.14c-8.23,2.2-16.68-2.68-18.89-10.9l0,0c-2.2-8.23,2.68-16.68,10.91-18.89
					l258.02-69.14c8.23-2.2,16.68,2.68,18.89,10.9v0C-2360.5-856.98-2365.38-848.52-2373.61-846.32z"/>
			</g>
			<g>
				<path class="st0" d="M-2381.59-777.18l-258.02-69.14c-8.23-2.2-13.11-10.66-10.91-18.89v0c2.2-8.23,10.66-13.11,18.89-10.9
					l258.02,69.14c8.23,2.2,13.11,10.66,10.91,18.89v0C-2364.91-779.86-2373.36-774.98-2381.59-777.18z"/>
			</g>
			<g>
				<path class="st0" d="M-2381.59-707.93l-258.02-69.14c-8.23-2.2-13.11-10.66-10.91-18.89v0c2.2-8.23,10.66-13.11,18.89-10.9
					l258.02,69.14c8.23,2.2,13.11,10.66,10.91,18.89v0C-2364.91-710.61-2373.36-705.73-2381.59-707.93z"/>
			</g>
			<g>
				<path class="st0" d="M-2373.61-777.07l-258.02,69.14c-8.23,2.2-16.68-2.68-18.89-10.9l0,0c-2.2-8.23,2.68-16.68,10.91-18.89
					l258.02-69.14c8.23-2.2,16.68,2.68,18.89,10.9v0C-2360.5-787.73-2365.38-779.27-2373.61-777.07z"/>
			</g>
		</g>
		<g>
			<path class="st0" d="M-2360.21-1180.77h-293.97c-16.21,0-29.35,13.14-29.35,29.35v119.27c0,2.77,2.25,5.02,5.02,5.02h342.62
				c2.77,0,5.02-2.25,5.02-5.02v-119.27C-2330.86-1167.63-2344-1180.77-2360.21-1180.77z M-2519.41-1065.54h-143.74v-38.41h143.74
				V-1065.54z M-2519.41-1117.34h-143.74v-38.41h143.74V-1117.34z M-2351.81-1065.54h-143.74v-38.41h143.74V-1065.54z
				 M-2351.81-1117.34h-143.74v-38.41h143.74V-1117.34z"/>
		</g>
		<g>
			<path class="st0" d="M-2342.23-701.82h-329.92c-6.28,0-11.37,5.09-11.37,11.37v87.82c0,6.28,5.09,11.37,11.37,11.37h14.42
				c-0.5-2.44-0.77-4.97-0.77-7.57c0-20.57,16.68-37.25,37.25-37.25c20.57,0,37.25,16.68,37.25,37.25c0,2.59-0.27,5.12-0.77,7.57
				h157.51c-0.5-2.44-0.77-4.97-0.77-7.57c0-20.57,16.68-37.25,37.25-37.25c20.57,0,37.25,16.68,37.25,37.25
				c0,2.59-0.27,5.12-0.77,7.57h12.09c6.28,0,11.37-5.09,11.37-11.37v-87.82C-2330.86-696.72-2335.95-701.82-2342.23-701.82z"/>
		</g>
		<path class="st0" d="M-2621.25-631.98c-18.32,0-33.17,14.85-33.17,33.17c0,18.32,14.85,33.17,33.17,33.17s33.17-14.85,33.17-33.17
			C-2588.08-617.13-2602.93-631.98-2621.25-631.98z M-2621.25-583.26c-8.59,0-15.55-6.96-15.55-15.55s6.96-15.55,15.55-15.55
			s15.55,6.96,15.55,15.55S-2612.67-583.26-2621.25-583.26z"/>
		<path class="st0" d="M-2390.8-631.98c-18.32,0-33.17,14.85-33.17,33.17c0,18.32,14.85,33.17,33.17,33.17s33.17-14.85,33.17-33.17
			C-2357.63-617.13-2372.48-631.98-2390.8-631.98z M-2390.8-583.26c-8.59,0-15.55-6.96-15.55-15.55s6.96-15.55,15.55-15.55
			s15.55,6.96,15.55,15.55S-2382.21-583.26-2390.8-583.26z"/>
	</g>
</g>
<path class="st0" d="M2455.09,970.19l-197.7-189.82c76.29-116.2,61.49-273.85-42.41-373.6c-117.26-112.58-303.58-108.79-416.17,8.47
	s-108.79,303.58,8.47,416.17c103.78,99.64,261.64,108.1,374.61,27.46l197.77,189.88c19.54,18.76,50.59,18.13,69.36-1.41l7.48-7.79
	C2475.27,1020,2474.63,988.95,2455.09,970.19z M1858.25,778.33c-87.95-84.44-90.79-224.18-6.35-312.12
	c84.44-87.95,224.18-90.79,312.12-6.35s90.79,224.18,6.35,312.12C2085.94,859.92,1946.19,862.76,1858.25,778.33z"/>
<g>
	<path class="st0" d="M2436.44-372.29h-572.18c-18.54,0-33.56,15.03-33.56,33.56V70.84c0,18.54,15.03,33.56,33.56,33.56h572.18
		c18.54,0,33.56-15.03,33.56-33.56v-409.57C2470-357.26,2454.97-372.29,2436.44-372.29z M2437.14,63.44
		c0,9.09-7.37,16.46-16.46,16.46h-540.67c-9.09,0-16.46-7.37-16.46-16.46v-394.78c0-9.09,7.37-16.46,16.46-16.46h540.67
		c9.09,0,16.46,7.37,16.46,16.46V63.44z"/>
	<g>
		<path class="st0" d="M2378.2-252h-455.53c-11.99,0-21.72-9.72-21.72-21.72v0c0-11.99,9.72-21.72,21.72-21.72h455.53
			c11.99,0,21.72,9.72,21.72,21.72v0C2399.91-261.73,2390.19-252,2378.2-252z"/>
	</g>
	<g>
		<path class="st0" d="M2378.2,25.33h-455.53c-11.99,0-21.72-9.72-21.72-21.72v0c0-11.99,9.72-21.72,21.72-21.72h455.53
			c11.99,0,21.72,9.72,21.72,21.72v0C2399.91,15.6,2390.19,25.33,2378.2,25.33z"/>
	</g>
	<g>
		<path class="st0" d="M2378.2-112.78h-340.81c-11.99,0-21.72-9.72-21.72-21.72v0c0-11.99,9.72-21.72,21.72-21.72h340.81
			c11.99,0,21.72,9.72,21.72,21.72v0C2399.91-122.51,2390.19-112.78,2378.2-112.78z"/>
	</g>
	<g>
		<path class="st0" d="M2088.61-177.38h-61.26c-11.99,0-21.72-9.72-21.72-21.72v0c0-11.99,9.72-21.72,21.72-21.72h61.26
			c11.99,0,21.72,9.72,21.72,21.72v0C2110.33-187.1,2100.61-177.38,2088.61-177.38z"/>
	</g>
	<g>
		<path class="st0" d="M2374.85-177.38h-226.1c-11.99,0-21.72-9.72-21.72-21.72v0c0-11.99,9.72-21.72,21.72-21.72h226.1
			c11.99,0,21.72,9.72,21.72,21.72v0C2396.57-187.1,2386.85-177.38,2374.85-177.38z"/>
	</g>
	<g>
		<path class="st0" d="M2021.79-43.73h-99.13c-11.99,0-21.72-9.72-21.72-21.72v0c0-11.99,9.72-21.72,21.72-21.72h99.13
			c11.99,0,21.72,9.72,21.72,21.72v0C2043.51-53.45,2033.78-43.73,2021.79-43.73z"/>
	</g>
	<g>
		<path class="st0" d="M2378.2-43.73h-301.83c-11.99,0-21.72-9.72-21.72-21.72v0c0-11.99,9.72-21.72,21.72-21.72h301.83
			c11.99,0,21.72,9.72,21.72,21.72v0C2399.91-53.45,2390.19-43.73,2378.2-43.73z"/>
	</g>
	<circle class="st0" cx="1680.42" cy="-294.33" r="79.08"/>
	<path class="st0" d="M1954.41-185.18h-173.75h-133.57c-43.72,0-79.16,35.44-79.16,79.16v209.31h212.73v-219.41h173.75
		c19.07,0,34.53-15.46,34.53-34.53v0C1988.93-169.72,1973.47-185.18,1954.41-185.18z"/>
</g>
</svg>
