<?xml version="1.0" encoding="utf-8"?>
<!-- Generator: Adobe Illustrator 23.1.0, SVG Export Plug-In . SVG Version: 6.00 Build 0)  -->
<svg version="1.1" id="Layer_1" xmlns="http://www.w3.org/2000/svg" xmlns:xlink="http://www.w3.org/1999/xlink" x="0px" y="0px"
	 viewBox="0 0 1000 1000" style="enable-background:new 0 0 1000 1000;" xml:space="preserve">
<style type="text/css">
	.st0{fill:#00409E;}
	.st1{fill:#4F4F4F;}
	.st2{fill:none;}
</style>
<path class="st0" d="M862.09,776.19l-197.7-189.82c76.29-116.2,61.49-273.85-42.41-373.6c-117.26-112.58-303.58-108.79-416.17,8.47
	s-108.79,303.58,8.47,416.17c103.78,99.64,261.64,108.1,374.61,27.46l197.77,189.88c19.54,18.76,50.59,18.13,69.36-1.41l7.48-7.79
	C882.27,826,881.63,794.95,862.09,776.19z M265.25,584.33c-87.95-84.44-90.79-224.18-6.35-312.12s224.18-90.79,312.12-6.35
	s90.79,224.18,6.35,312.12S353.19,668.76,265.25,584.33z"/>
</svg>
